<?xml version="1.0" encoding="iso-8859-1"?>
<!-- Generator: Adobe Illustrator 19.0.0, SVG Export Plug-In . SVG Version: 6.00 Build 0)  -->
<svg version="1.1" id="Layer_1" xmlns="http://www.w3.org/2000/svg" xmlns:xlink="http://www.w3.org/1999/xlink" x="0px" y="0px"
	 viewBox="0 0 512 512" style="enable-background:new 0 0 512 512;" xml:space="preserve">
<path style="fill:#FFB88B;" d="M423.149,106.213h-65.362V73.532h-32.681L303.319,503.83H336c17.974,0,31.057-14.616,29.072-32.48
	l-7.285-65.562v-32.681h65.362c36.04,0,65.362-29.321,65.362-65.362v-136.17C488.511,135.534,459.189,106.213,423.149,106.213z
	 M455.83,307.745c0,17.974-14.706,32.681-32.681,32.681h-65.362V138.894h65.362c17.974,0,32.681,14.706,32.681,32.681V307.745z"/>
<path style="fill:#FFCFB2;" d="M332.391,471.349l-7.285-65.562V73.532H30.979v332.255l-7.285,65.562
	c-1.986,17.864,11.097,32.48,29.072,32.48h250.553C321.294,503.83,334.376,489.214,332.391,471.349z"/>
<polygon style="fill:#FF6638;" points="270.638,351.319 292.426,405.787 325.106,405.787 325.106,373.106 "/>
<polygon style="fill:#FF883E;" points="63.66,373.106 63.66,405.787 292.426,405.787 292.426,351.319 "/>
<polygon style="fill:#FFE1AA;" points="292.426,73.532 270.638,223.319 292.426,373.106 325.106,373.106 325.106,73.532 "/>
<rect x="63.663" y="73.532" style="fill:#FFF5E3;" width="228.766" height="299.574"/>
<path d="M423.148,98.043h-57.191V73.532c0-4.513-3.657-8.17-8.17-8.17H30.978c-4.513,0-8.17,3.657-8.17,8.17v331.803l-7.234,65.112
	c-1.22,10.981,2.006,21.383,9.083,29.291C31.734,507.646,41.718,512,52.765,512h283.234c11.049,0,21.031-4.355,28.11-12.263
	c7.078-7.909,10.303-18.311,9.083-29.291l-7.236-65.112v-24.057h57.191c40.546,0,73.532-32.986,73.532-73.532v-136.17
	C496.68,131.028,463.694,98.043,423.148,98.043z M480.339,307.745c0,31.535-25.657,57.191-57.191,57.191h-65.362
	c-4.513,0-8.17,3.657-8.17,8.17v32.681c0,0.301,0.017,0.603,0.05,0.902l7.286,65.562c0.7,6.299-1.082,12.19-5.019,16.589
	c-3.936,4.398-9.595,6.82-15.933,6.82H52.766c-6.338,0-11.996-2.423-15.932-6.82c-3.937-4.398-5.719-10.289-5.019-16.589
	l7.285-65.562c0.033-0.3,0.05-0.601,0.05-0.902V81.702h16.34v258.723c0,4.513,3.657,8.17,8.17,8.17s8.17-3.657,8.17-8.17V81.702
	h245.106v283.234H63.661c-4.513,0-8.17,3.657-8.17,8.17v32.681c0,4.513,3.657,8.17,8.17,8.17h261.447c4.513,0,8.17-3.657,8.17-8.17
	V81.702h16.34v24.511c0,4.513,3.657,8.17,8.17,8.17h65.362c31.535,0,57.191,25.657,57.191,57.191v136.17H480.339z M316.935,381.277
	v16.34H71.829v-16.34H316.935z"/>
<path d="M423.148,130.723h-65.362c-4.513,0-8.17,3.657-8.17,8.17v201.532c0,4.513,3.657,8.17,8.17,8.17h65.362
	c22.526,0,40.851-18.325,40.851-40.851v-136.17C463.999,149.049,445.674,130.723,423.148,130.723z M447.658,307.745
	c0,13.515-10.996,24.511-24.511,24.511h-57.191V147.064h57.191c13.515,0,24.511,10.996,24.511,24.511V307.745z"/>
<path d="M245.723,48.399c1.022,0.425,2.081,0.624,3.123,0.624c3.206,0,6.247-1.9,7.551-5.046l12.506-30.194
	c1.728-4.169-0.252-8.948-4.422-10.675c-4.167-1.73-8.948,0.252-10.675,4.422l-12.506,30.194
	C239.575,41.894,241.554,46.673,245.723,48.399z"/>
<path d="M132.367,43.978c1.303,3.147,4.344,5.046,7.551,5.046c1.041,0,2.101-0.202,3.123-0.624
	c4.169-1.727,6.149-6.506,4.422-10.675L134.957,7.531c-1.727-4.169-6.505-6.148-10.675-4.422c-4.169,1.727-6.149,6.506-4.422,10.675
	L132.367,43.978z"/>
<path d="M194.382,49.021c4.513,0,8.17-3.657,8.17-8.17V8.17c0-4.513-3.657-8.17-8.17-8.17s-8.17,3.657-8.17,8.17v32.681
	C186.212,45.364,189.87,49.021,194.382,49.021z"/>
<g>
</g>
<g>
</g>
<g>
</g>
<g>
</g>
<g>
</g>
<g>
</g>
<g>
</g>
<g>
</g>
<g>
</g>
<g>
</g>
<g>
</g>
<g>
</g>
<g>
</g>
<g>
</g>
<g>
</g>
</svg>
